# xmcd CD database file
#
# Track frame offsets:
#	150
#	15842
#	34447
#	56030
#	76242
#	94247
#	109472
#	125835
#	146390
#	165685
#	187525
#	209327
#
# Disc length: 3063 seconds
#
# Revision: 0
# Processed by: cddbd v1.5PL3 Copyright (c) Steve Scherf et al.
# Submitted via: CDex 1.51
#
DISCID=9f0bf50c
DTITLE=Adorable - Fake
DYEAR=1994
DGENRE=Rock
TTITLE0=Feed Me
TTITLE1=Vendetta
TTITLE2=Man In A Suitcase
TTITLE3=Submarine
TTITLE4=Lettergo
TTITLE5=Kangaroo Court
TTITLE6=Radio Days
TTITLE7=Go Easy On Her
TTITLE8=Road Movie
TTITLE9=Have You Seen The Light
TTITLE10=Dinosaur #3
TTITLE11=This House Is Rotten
EXTD=YEAR: 1994
EXTT0=
EXTT1=
EXTT2=
EXTT3=
EXTT4=
EXTT5=
EXTT6=
EXTT7=
EXTT8=
EXTT9=
EXTT10=
EXTT11=
PLAYORDER=
